<?xml version="1.0" encoding="iso-8859-1"?>
<!-- Uploaded to: SVG Repo, www.svgrepo.com, Generator: SVG Repo Mixer Tools -->
<svg height="800px" width="800px" version="1.1" id="Layer_1" xmlns="http://www.w3.org/2000/svg" xmlns:xlink="http://www.w3.org/1999/xlink" 
	 viewBox="0 0 512 512" xml:space="preserve">
<circle style="fill:#A5EB78;" cx="256.005" cy="256.005" r="247.556"/>
<path style="opacity:0.1;enable-background:new    ;" d="M53.508,289.795c0-136.719,110.832-247.551,247.551-247.551
	c45.567,0,88.25,12.325,124.92,33.802C381.637,34.146,321.823,8.449,256,8.449C119.281,8.449,8.449,119.281,8.449,256
	c0,91.152,49.273,170.784,122.631,213.748C83.318,424.618,53.508,360.691,53.508,289.795z"/>
<g>
	<path style="fill:#FFFFFF;" d="M391.375,234.761L366.4,94.714l-35.529,35.529c-22.076-13.136-47.765-20.559-74.872-20.559
		c-36.924,0-72.186,13.795-99.289,38.842c-26.941,24.899-43.46,58.683-46.514,95.13l67.354,5.644
		c1.64-19.572,10.53-37.733,25.035-51.137c14.577-13.473,33.547-20.892,53.414-20.892c8.352,0,16.447,1.322,24.075,3.767
		l-28.749,28.749L391.375,234.761z"/>
	<path style="fill:#FFFFFF;" d="M110.197,277.238l24.975,140.049l35.529-35.529c22.076,13.136,47.765,20.559,74.872,20.559
		c36.924,0,72.186-13.795,99.289-38.842c26.941-24.899,43.46-58.683,46.514-95.13l-67.354-5.644
		c-1.64,19.572-10.53,37.733-25.035,51.137c-14.577,13.473-33.547,20.892-53.414,20.892c-8.352,0-16.447-1.323-24.075-3.767
		l28.749-28.749L110.197,277.238z"/>
</g>
<path d="M256,512c-68.38,0-132.667-26.629-181.019-74.981C26.629,388.667,0,324.38,0,256c0-75.008,32.755-145.994,89.866-194.758
	c3.548-3.029,8.881-2.61,11.911,0.938c3.03,3.548,2.609,8.881-0.938,11.911C47.493,119.642,16.897,185.943,16.897,256
	c0,131.841,107.261,239.103,239.103,239.103c55.438,0,109.469-19.406,152.142-54.641c3.597-2.972,8.923-2.463,11.895,1.135
	c2.971,3.598,2.462,8.923-1.135,11.895C373.208,491.221,315.356,512,256,512z"/>
<path d="M438.06,432.164c-2.047,0-4.099-0.739-5.724-2.236c-3.431-3.163-3.649-8.507-0.487-11.938
	c40.789-44.256,63.252-101.784,63.252-161.989C495.103,124.159,387.841,16.897,256,16.897c-45.761,0-90.232,12.968-128.607,37.501
	c-3.929,2.513-9.155,1.364-11.668-2.567s-1.364-9.155,2.567-11.668C159.389,13.887,207.008,0,256,0
	c68.38,0,132.667,26.629,181.019,74.981S512,187.62,512,256c0,64.461-24.053,126.056-67.725,173.441
	C442.61,431.248,440.338,432.164,438.06,432.164z"/>
<path d="M177.56,257.748c-0.237,0-0.474-0.01-0.714-0.03l-67.354-5.644c-4.65-0.39-8.104-4.474-7.714-9.125
	c3.231-38.557,20.703-74.295,49.198-100.63c28.669-26.496,65.968-41.087,105.023-41.087c25.686,0,50.937,6.375,73.441,18.491
	l30.985-30.985c2.226-2.225,5.502-3.028,8.507-2.086c3.003,0.944,5.232,3.479,5.784,6.576l24.975,140.049
	c0.486,2.719-0.39,5.504-2.343,7.457c-1.952,1.953-4.737,2.831-7.457,2.343l-140.049-24.975c-3.098-0.552-5.632-2.781-6.576-5.784
	c-0.943-3.003-0.14-6.281,2.086-8.507l17.735-17.735c-2.351-0.238-4.717-0.357-7.088-0.357c-17.736,0-34.67,6.623-47.681,18.648
	c-12.949,11.967-20.886,28.174-22.349,45.637C185.599,254.415,181.906,257.748,177.56,257.748z M119.58,235.963l50.667,4.246
	c3.373-18.447,12.638-35.343,26.605-48.251c16.143-14.919,37.149-23.136,59.149-23.136c9.049,0,18.016,1.402,26.653,4.169
	c2.805,0.899,4.94,3.194,5.634,6.056s-0.154,5.88-2.237,7.963l-17.299,17.299l112.181,20.005l-20.006-112.18l-24.08,24.08
	c-2.732,2.734-6.971,3.263-10.295,1.286c-21.296-12.673-45.692-19.371-70.55-19.371c-34.791,0-68.017,12.997-93.554,36.598
	C139.142,176.268,124.114,204.857,119.58,235.963z"/>
<path d="M135.171,425.735c-0.846,0-1.7-0.127-2.532-0.389c-3.003-0.944-5.233-3.479-5.785-6.576L101.88,278.721
	c-0.486-2.719,0.39-5.504,2.343-7.457c1.952-1.953,4.736-2.832,7.457-2.343l140.049,24.975c3.098,0.552,5.632,2.781,6.576,5.784
	c0.943,3.003,0.14,6.281-2.086,8.507l-17.735,17.735c2.351,0.238,4.717,0.357,7.088,0.357c17.736,0,34.67-6.623,47.681-18.648
	c12.949-11.967,20.886-28.174,22.349-45.637c0.39-4.649,4.477-8.101,9.125-7.713l67.354,5.644c4.65,0.39,8.104,4.474,7.714,9.125
	c-3.231,38.557-20.702,74.295-49.198,100.63c-28.669,26.496-65.968,41.087-105.023,41.087c-25.686,0-50.937-6.375-73.441-18.491
	l-30.985,30.985C139.537,424.87,137.379,425.735,135.171,425.735z M120.642,287.682l20.005,112.181l24.08-24.08
	c2.733-2.734,6.972-3.261,10.295-1.286c21.296,12.673,45.692,19.371,70.551,19.371c34.791,0,68.017-12.997,93.554-36.598
	c23.305-21.537,38.332-50.127,42.866-81.234l-50.667-4.246c-3.373,18.447-12.638,35.343-26.605,48.251
	c-16.142,14.919-37.149,23.136-59.149,23.136c-9.049,0-18.016-1.402-26.653-4.169c-2.805-0.899-4.94-3.194-5.634-6.056
	c-0.694-2.862,0.154-5.88,2.237-7.963l17.299-17.299L120.642,287.682z"/>
</svg>