<?xml version="1.0" encoding="UTF-8" standalone="no"?><!-- Generator: Gravit.io --><svg xmlns="http://www.w3.org/2000/svg" xmlns:xlink="http://www.w3.org/1999/xlink" style="isolation:isolate" viewBox="0 0 16 16" width="16pt" height="16pt"><defs><clipPath id="_clipPath_eVFSl4zvN5oTHPzyWFXDKL3KvwnaLKzR"><rect width="16" height="16"/></clipPath></defs><g clip-path="url(#_clipPath_eVFSl4zvN5oTHPzyWFXDKL3KvwnaLKzR)"><clipPath id="_clipPath_whDLWxO2Es9F8hEuhZ0p3GS4myfSGk47"><rect x="0" y="0" width="16" height="16" transform="matrix(1,0,0,1,0,0)" fill="rgb(255,255,255)"/></clipPath><g clip-path="url(#_clipPath_whDLWxO2Es9F8hEuhZ0p3GS4myfSGk47)"><g><g filter="url(#ypa27OiaF8P4AvdUhn4W059B0fCNWPt7)"><path d=" M 9.541 8.003 L 3.556 2.018 C 3.391 1.853 3.3 1.633 3.3 1.399 C 3.3 1.164 3.391 0.945 3.556 0.78 L 4.08 0.256 C 4.245 0.091 4.465 0 4.699 0 C 4.933 0 5.153 0.091 5.318 0.256 L 12.445 7.382 C 12.61 7.548 12.7 7.768 12.7 8.003 C 12.7 8.239 12.61 8.459 12.445 8.625 L 5.324 15.744 C 5.16 15.909 4.94 16 4.706 16 C 4.471 16 4.251 15.909 4.087 15.744 L 3.562 15.22 C 3.221 14.879 3.221 14.323 3.562 13.982 L 9.541 8.003 L 9.541 8.003 Z " fill="rgb(255,255,255)"/></g><defs><filter id="ypa27OiaF8P4AvdUhn4W059B0fCNWPt7" x="-200%" y="-200%" width="400%" height="400%" filterUnits="objectBoundingBox" color-interpolation-filters="sRGB"><feGaussianBlur xmlns="http://www.w3.org/2000/svg" in="SourceGraphic" stdDeviation="1.42936090628390283"/><feOffset xmlns="http://www.w3.org/2000/svg" dx="0" dy="0" result="pf_100_offsetBlur"/><feFlood xmlns="http://www.w3.org/2000/svg" flood-color="#000000" flood-opacity="1"/><feComposite xmlns="http://www.w3.org/2000/svg" in2="pf_100_offsetBlur" operator="in" result="pf_100_dropShadow"/><feBlend xmlns="http://www.w3.org/2000/svg" in="SourceGraphic" in2="pf_100_dropShadow" mode="normal"/></filter></defs></g></g></g></svg>