<?xml version="1.0" encoding="iso-8859-1"?>
<!-- Uploaded to: SVG Repo, www.svgrepo.com, Generator: SVG Repo Mixer Tools -->
<svg height="800px" width="800px" version="1.1" id="Layer_1" xmlns="http://www.w3.org/2000/svg" xmlns:xlink="http://www.w3.org/1999/xlink" 
	 viewBox="0 0 512 512" xml:space="preserve">
<g>
	<path style="fill:#F2D23D;" d="M256.007,423.724c-0.004,0-0.004,0-0.007,0c-14.626,0-26.483,11.857-26.483,26.483v35.31
		C229.517,500.143,241.374,512,256,512c0.004,0,0.004,0,0.007,0c14.622-0.004,26.476-11.859,26.476-26.483v-35.31
		C282.483,435.583,270.629,423.728,256.007,423.724z"/>
	<path style="fill:#F2D23D;" d="M256.007,0c-0.004,0-0.004,0-0.007,0c-14.626,0-26.483,11.857-26.483,26.483v35.31
		c0,14.626,11.857,26.483,26.483,26.483c0.004,0,0.004,0,0.007,0c14.622-0.004,26.476-11.859,26.476-26.483v-35.31
		C282.483,11.859,270.629,0.004,256.007,0z"/>
	<path style="fill:#F2D23D;" d="M256.007,141.241h-0.004c-63.276,0-114.755,51.481-114.755,114.759s51.479,114.759,114.755,114.759
		h0.004c63.278-0.002,114.759-51.481,114.759-114.759C370.766,192.724,319.285,141.243,256.007,141.241z"/>
</g>
<g>
	<path style="fill:#EEBF00;" d="M256.004,141.241c-63.276,0-114.755,51.481-114.755,114.76c0,63.278,51.479,114.757,114.755,114.757
		h0.004V141.241H256.004z"/>
	<path style="fill:#EEBF00;" d="M256.007,88.276V0c-0.004,0-0.004,0-0.007,0c-14.626,0-26.483,11.857-26.483,26.483v35.31
		c0,14.626,11.857,26.483,26.483,26.483C256.004,88.276,256.004,88.276,256.007,88.276z"/>
	<path style="fill:#EEBF00;" d="M256,423.724c-14.626,0-26.483,11.857-26.483,26.483v35.31C229.517,500.143,241.374,512,256,512
		c0.004,0,0.004,0,0.007,0v-88.276C256.004,423.724,256.004,423.724,256,423.724z"/>
</g>
<path style="fill:#F2D23D;" d="M423.724,256c0,14.626,11.857,26.483,26.483,26.483h35.31C500.143,282.483,512,270.626,512,256
	c0-14.626-11.857-26.483-26.483-26.483h-35.31C435.581,229.517,423.724,241.374,423.724,256z"/>
<path style="fill:#EEBF00;" d="M26.483,282.483h35.31c14.626,0,26.483-11.857,26.483-26.483c0-14.626-11.857-26.483-26.483-26.483
	h-35.31C11.857,229.517,0,241.374,0,256C0,270.626,11.857,282.483,26.483,282.483z"/>
<path style="fill:#F2D23D;" d="M399.567,74.98l-24.97,24.968c-10.342,10.342-10.342,27.11,0,37.452
	c5.171,5.171,11.949,7.758,18.725,7.758s13.556-2.586,18.725-7.756l24.97-24.968c10.342-10.342,10.342-27.11,0-37.452
	C426.68,64.637,409.911,64.637,399.567,74.98z"/>
<path style="fill:#EEBF00;" d="M99.949,374.597l-24.968,24.968c-10.342,10.342-10.342,27.109,0,37.452
	c5.171,5.171,11.949,7.756,18.725,7.756s13.556-2.586,18.725-7.756l24.97-24.968c10.342-10.342,10.342-27.11,0-37.452
	C127.061,364.256,110.292,364.254,99.949,374.597z"/>
<path style="fill:#F2D23D;" d="M399.567,437.018c5.171,5.171,11.949,7.756,18.725,7.756c6.778,0,13.556-2.585,18.727-7.756
	c10.342-10.342,10.342-27.11,0-37.452l-24.97-24.968c-10.341-10.341-27.11-10.341-37.452,0.002
	c-10.342,10.342-10.342,27.109,0,37.452L399.567,437.018z"/>
<path style="fill:#EEBF00;" d="M99.949,137.401c5.171,5.171,11.949,7.756,18.727,7.756c6.778,0,13.556-2.586,18.725-7.758
	c10.342-10.342,10.342-27.11,0-37.452L112.433,74.98c-10.341-10.341-27.11-10.341-37.452,0c-10.342,10.342-10.342,27.11,0,37.452
	L99.949,137.401z"/>
</svg>