<?xml version="1.0" encoding="UTF-8" standalone="no"?><!-- Generator: Gravit.io --><svg xmlns="http://www.w3.org/2000/svg" xmlns:xlink="http://www.w3.org/1999/xlink" style="isolation:isolate" viewBox="0 0 16 16" width="16pt" height="16pt"><defs><clipPath id="_clipPath_z1ZWMbJsyhiOU2QHbFJoUMhQtGZ43GMW"><rect width="16" height="16"/></clipPath></defs><g clip-path="url(#_clipPath_z1ZWMbJsyhiOU2QHbFJoUMhQtGZ43GMW)"><defs><filter id="VFDVuOTf5K98KT4GTZIfo6t2oUeOZ3OQ" x="-200%" y="-200%" width="400%" height="400%" filterUnits="objectBoundingBox" color-interpolation-filters="sRGB"><feGaussianBlur xmlns="http://www.w3.org/2000/svg" in="SourceGraphic" stdDeviation="1.42936090628390283"/><feOffset xmlns="http://www.w3.org/2000/svg" dx="0" dy="0" result="pf_100_offsetBlur"/><feFlood xmlns="http://www.w3.org/2000/svg" flood-color="#000000" flood-opacity="1"/><feComposite xmlns="http://www.w3.org/2000/svg" in2="pf_100_offsetBlur" operator="in" result="pf_100_dropShadow"/><feBlend xmlns="http://www.w3.org/2000/svg" in="SourceGraphic" in2="pf_100_dropShadow" mode="normal"/></filter></defs><g filter="url(#VFDVuOTf5K98KT4GTZIfo6t2oUeOZ3OQ)"><path d=" M 6.459 8.003 L 12.444 2.018 C 12.609 1.853 12.7 1.633 12.7 1.399 C 12.7 1.164 12.609 0.945 12.444 0.78 L 11.92 0.256 C 11.755 0.091 11.535 0 11.301 0 C 11.067 0 10.847 0.091 10.682 0.256 L 3.555 7.382 C 3.39 7.548 3.3 7.768 3.3 8.003 C 3.3 8.239 3.39 8.459 3.555 8.625 L 10.676 15.744 C 10.84 15.909 11.06 16 11.294 16 C 11.529 16 11.749 15.909 11.913 15.744 L 12.438 15.22 C 12.779 14.879 12.779 14.323 12.438 13.982 L 6.459 8.003 L 6.459 8.003 Z " fill="rgb(255,255,255)"/></g></g></svg>